#!OML:ASF F:\VICON\USERDATA\INSTALL\rory3\rory3.ASF
:FULLY-SPECIFIED
:DEGREES
1
root 0.4964124819451333 17.616995380800855 -13.94929643329117 6.752819718021133 -1.7506776867181992 -0.9995117687799762
lfemur -12.495010960204983 6.087395252010317 -18.52270972889026
ltibia 19.108508203435694
lfoot -10.763201626959011 7.187920162089246
ltoes 5.934106719315597
rfemur -14.384110143801546 -2.7837233739965574 19.60730292114261
rtibia 22.930608997109537
rfoot -14.112200264365468 -3.7757323809138157
rtoes 12.590295857567314
lowerback -3.4335271644026415 -0.3110290433761135 -0.22371379244666895
upperback 3.3586143023264503 -0.4657821141852272 1.273498916379968
thorax 5.415789695692796 -0.2671887786347362 1.4080798068045874
lowerneck -13.05309846300932 0.6692665248476637 -1.9449302521444887
upperneck 32.908693349889546 1.0709966322524471 1.2682592763426144
head 13.18019299446269 0.3881826860073826 0.9949483253848901
lclavicle -1.1859577088153217e-17 -8.162223694816695e-16
lhumerus -22.445584450134728 1.6414247672916122 86.18381426086951
lradius 18.837514739779973
lwrist -1.95466858405225
lhand -23.063309514201425 -1.262753741374647
lfingers 7.125019999999999
lthumb 3.381980557122713 28.69018620760891
rclavicle -1.1859577088153217e-17 -8.162223694816695e-16
rhumerus -25.582376541562766 -18.591977221792725 -77.95142568143189
rradius 24.252013726930038
rwrist 34.48117745182719
rhand -17.526204997920544 -27.176493890076436
rfingers 7.125019999999999
rthumb 8.727595003989297 -56.975994448359366
2
root 0.5018712471124034 17.616695374167545 -13.947596468264587 6.755019491541047 -1.7334578140477162 -0.9966628429725529
lfemur -12.488411743782375 6.053665760990048 -18.54450953907421
ltibia 19.089608690604855
lfoot -10.743501733287589 7.2095900717539765
ltoes 5.876866862264133
rfemur -14.382210723627487 -2.806553185298367 19.58660313004625
rtibia 22.940608586073992
rfoot -14.1277002363013 -3.786192338994488
rtoes 12.431296104784698
lowerback -3.435866657218795 -0.3098910662284089 -0.23531766433109025
upperback 3.362564172938739 -0.4628611610170712 1.2582293784160923
thorax 5.421129719710393 -0.2658978156384971 1.398980001774449
lowerneck -13.041498531324095 0.661326574489276 -1.9175804748221719
upperneck 32.95399280631532 1.0556666570893667 1.2563693367960609
head 13.197692834448748 0.38287170874322163 0.9836985038355984
lclavicle -1.185957845029572e-17 -8.162223799491957e-16
lhumerus -22.0935855431347 0.8471614001026406 86.7896123576115
lradius 19.223613453437775
lwrist -1.3372491305861498
lhand -23.27930878409312 -1.6582215415832202
lfingers 7.125019999999999
lthumb 3.1733911116253344 28.29788842481608
rclavicle -1.185957845029572e-17 -8.162223799491957e-16
rhumerus -25.100878458419594 -17.80927748350781 -78.65822299387847
rradius 24.691312724695354
rwrist 33.784579028891756
rhand -17.586504712794103 -27.16359406828326
rfingers 7.125019999999999
rthumb 8.669365301950668 -56.96549459035592
3
root 0.5076240002648196 17.617295366096567 -13.945096482987802 6.759229714917589 -1.7580276195704605 -1.0045526363604376
lfemur -12.480410215617972 6.066485580133387 -18.55840939479793
ltibia 19.089508513430467
lfoot -10.75220164206335 7.221890020293484
ltoes 5.88887681665989
rfemur -14.366910885561785 -2.8024332028097927 19.57300326078975
rtibia 22.912308490728638
rfoot -14.130200235900208 -3.7692324073072125
rtoes 12.380396171069311
lowerback -3.4449268158356388 -0.29231540345919554 -0.23225868305773367
upperback 3.3562943908343565 -0.4387295085061273 1.2422298921393953
thorax 5.418899715888518 -0.2534381588634108 1.3825802699883698
lowerneck -13.029898599638871 0.6651695430116278 -1.886190728679255
upperneck 33.02709315670878 1.0555867069460054 1.2476693891628337
head 13.226792735076467 0.3849656826254224 0.9755856316221218
lclavicle -1.1859572846039859e-17 -8.16222393905918e-16
lhumerus -21.71858696144502 -0.28922473306012364 87.53131045141129
lradius 19.856611966722603
lwrist -0.36924816622383716
lhand -23.3572085390079 -1.6449617121716043
lfingers 7.125019999999999
lthumb 3.0981015156659675 28.31228826097133
rclavicle -1.1859572846039859e-17 -8.16222393905918e-16
rhumerus -24.578180181111865 -16.791079569107687 -79.51841995851542
rradius 25.265511460514126
rwrist 32.88778202433005
rhand -17.705604033535707 -27.131994445803258
rfingers 7.125019999999999
rthumb 8.554405961058631 -56.938794860894205
4
root 0.5142837143795708 17.617595372729877 -13.942496495179741 6.746709506097925 -1.7913573466218835 -1.0163123202939657
lfemur -12.454211691786796 6.060925673822346 -18.56950929247853
ltibia 19.098708262462843
lfoot -10.773201650979262 7.259709862077333
ltoes 5.973706627110821
rfemur -14.33550965069146 -2.810573141388009 19.56010335647279
rtibia 22.88180872940645
rfoot -14.114700253307124 -3.7503124774874412
rtoes 12.327696251172078
lowerback -3.450746740385573 -0.275436736918114 -0.20277601082297625
upperback 3.3507642125099446 -0.41684681963373144 1.221080549716175
thorax 5.415379650393129 -0.24094950448836963 1.3458309693145374
lowerneck -13.045798515634107 0.6803835109891516 -1.828741202524723
upperneck 33.115092816946884 1.0754966412395477 1.2096996062355017
head 13.268492546235832 0.395025635842703 0.9547849615644161
lclavicle -1.1859576737883314e-17 -8.162223776914894e-16
lhumerus -21.31458842847226 -1.507251535224757 88.28340788335053
lradius 20.59040981618055
lwrist 0.5667002753419172
lhand -23.397908361131822 -1.7032113014047168
lfingers 7.125019999999999
lthumb 3.0588715805548135 28.25458868449304
rclavicle -1.1859576737883314e-17 -8.162223776914894e-16
rhumerus -24.02898239737049 -15.631581521382468 -80.46191655693558
rradius 25.932609839532258
rwrist 31.91488496680238
rhand -17.688804115630628 -27.228493285770963
rfingers 7.125019999999999
rthumb 8.570685890329925 -57.03459383286854
5
root 0.5198164770135969 17.617295366096567 -13.93969650230913 6.721809798342438 -1.7993372955281095 -1.024092112053204
lfemur -12.41251118579758 6.055235767936454 -18.579909216098944
ltibia 19.088908321489996
lfoot -10.763401619134093 7.2710498136312935
ltoes 5.926596671166342
rfemur -14.294309874057575 -2.812463119430312 19.54820348262036
rtibia 22.874508988863177
rfoot -14.108200267138663 -3.7473225040255986
rtoes 12.29409631443371
lowerback -3.449746998745094 -0.27337477215413203 -0.19381910236628858
upperback 3.3363343001223615 -0.41403085928592653 1.2121808252587172
thorax 5.399439649375221 -0.23889756107893662 1.331761228698593
lowerneck -13.031098590595704 0.7102563563781918 -1.761921741418289
upperneck 33.19169313230914 1.1278265054533145 1.130110057898252
head 13.298492547729968 0.41504350345083685 0.9203755131682045
lclavicle -1.1859572962788595e-17 -8.162223885695434e-16
lhumerus -20.882689752447803 -2.794320043124932 89.03010569246618
lradius 21.358407436677936
lwrist 1.5092359353362355
lhand -23.54230804658234 -1.7335011217407825
lfingers 7.125019999999999
lthumb 2.9193520245423814 28.226288694367973
rclavicle -1.1859572962788595e-17 -8.162223885695434e-16
rhumerus -23.48718447580304 -14.388883693813131 -81.39371302963237
rradius 26.600908318607406
rwrist 30.9903876607668
rhand -17.67990417374278 -27.152794173216435
rfingers 7.125019999999999
rthumb 8.579255817423434 -56.9583946423821
6
root 0.5254062365942046 17.617695360715913 -13.936696504375972 6.716429603340572 -1.7989273099188716 -1.0080425419350658
lfemur -12.383111354764296 6.052835781825818 -18.61760886969525
ltibia 19.06320808517694
lfoot -10.765001639587979 7.25728987031066
ltoes 5.983316576349497
rfemur -14.27971054352225 -2.7795634091050325 19.51050383145936
rtibia 22.87860869854093
rfoot -14.114500259307272 -3.8006722818593355
rtoes 12.22049642519577
lowerback -3.4772463856871108 -0.2686738641273785 -0.20143403005984012
upperback 3.3261445281173354 -0.4069189587928772 1.204121078297336
thorax 5.404299757190101 -0.23546865564475247 1.32817132909584
lowerneck -13.003098734744162 0.7328582630973526 -1.7760216361195125
upperneck 33.22369272185347 1.1745663182725148 1.1021602186379615
head 13.305592533067598 0.42986841963082734 0.9189855407677031
lclavicle -1.185957759409332e-17 -8.162223744075406e-16
lhumerus -20.403791507747 -4.109758566018497 89.73550351366234
lradius 22.036705613677675
lwrist 2.417694474868121
lhand -23.792807149799486 -2.1109090084154145
lfingers 7.125019999999999
lthumb 2.677462829274635 27.85199086503003
rclavicle -1.185957759409332e-17 -8.162223744075406e-16
rhumerus -22.998586204391554 -13.110085107794731 -82.26930975941804
rradius 27.327306684282107
rwrist 30.076990273229644
rhand -17.74890379461017 -27.14849421547169
rfingers 7.125019999999999
rthumb 8.512696227259202 -56.95689470103115
7
root 0.5297980486294321 17.61749536340624 -13.93349650138026 6.716489830411774 -1.7833374372862334 -1.003942656548429
lfemur -12.375111566440761 6.061875640513227 -18.638808640310923
ltibia 19.05760861668152
lfoot -10.770301681387341 7.24015994328732
ltoes 5.944566628519039
rfemur -14.273210724261157 -2.7486336768237347 19.48880404122382
rtibia 22.896008714125117
rfoot -14.144800202864952 -3.85413205426277
rtoes 12.23859635113896
lowerback -3.5127566894106304 -0.26934485280445347 -0.21053893091068215
upperback 3.312444558828514 -0.407453951031626 1.2074009705132012
thorax 5.410359655511776 -0.23612063716364787 1.3365311636776667
lowerneck -12.949799009857392 0.7619231775397515 -1.743921896403948
upperneck 33.22369272185347 1.2254661807176939 1.0495705193372367
head 13.293792545350748 0.44934926273420717 0.8998178453760414
lclavicle -1.1859575764923591e-17 -8.162223803596882e-16
lhumerus -20.00809280316108 -5.369897013413331 90.34700159959331
lradius 22.7645035748318
lwrist 3.3381028420534093
lhand -23.88800691221455 -2.224048424925923
lfingers 7.125019999999999
lthumb 2.5855230906855087 27.73999147116572
rclavicle -1.1859575764923591e-17 -8.162223803596882e-16
rhumerus -22.56868780120458 -11.937586950602936 -83.03080700430804
rradius 27.977505117487507
rwrist 29.312892434354637
rhand -17.8267033394184 -27.12369453454355
rfingers 7.125019999999999
rthumb 8.437546663810284 -56.93519493720069
8
root 0.533406892745302 17.61749536340624 -13.9308965135722 6.711159599572116 -1.7318578320401885 -1.00626258812576
lfemur -12.3747114030405 6.041715969203736 -18.64640854408581
ltibia 19.07280854290687
lfoot -10.78190164280825 7.2092500739173655
ltoes 5.970686556597717
rfemur -14.249910713397412 -2.734773790919144 19.480204136337864
rtibia 22.894908475144454
rfoot -14.145600200178862 -3.9306317297893343
rtoes 12.213896475862345
lowerback -3.5213267149504857 -0.2817686104390185 -0.22806473486562712
upperback 3.2950946493788797 -0.42382071584817976 1.2267903591824232
thorax 5.397819868440223 -0.2452053870153246 1.3651106462443674
lowerneck -12.923199148231115 0.777878072663424 -1.7771416200738177
upperneck 33.230492563622434 1.2636061177122686 1.033420610347062
head 13.290192570913133 0.45985620347179657 0.9048417628414513
lclavicle -1.1859576309786026e-17 -8.162223768705023e-16
lhumerus -19.672693899331037 -6.4439355180189555 90.84540005826241
lradius 23.440101629603124
lwrist 4.123561663013571
lhand -24.036606464864754 -2.4831569955420605
lfingers 7.125019999999999
lthumb 2.442013605018242 27.482593001920026
rclavicle -1.1859576309786026e-17 -8.162223768705023e-16
rhumerus -22.238288826843032 -10.903688850881139 -83.63490475487748
rradius 28.5393038240537
rwrist 28.711794174371313
rhand -17.891602972056596 -27.03279556776753
rfingers 7.125019999999999
rthumb 8.374997033338746 -56.846795906841294
